<svg width="800" height="800" viewBox="0 0 24 24" xmlns="http://www.w3.org/2000/svg">

  <defs>

    <linearGradient id="a" x1="14" y1="12" x2="22" y2="12" gradientUnits="userSpaceOnUse">

      <stop offset="0%" stop-color="#0090ff"/>

      <stop offset="50%" stop-color="#4c4fd8"/>

      <stop offset="100%" stop-color="#d52ab7"/>

    </linearGradient>

  </defs>

  <path fill-rule="evenodd" d="M3 11v8h18v-8zm0-2h18V7h-9.005c-.719-.004-1.186-.34-1.69-.963-.069-.086-.29-.373-.323-.416C9.607 5.15 9.384 5 9 5H3zm18-4a2 2 0 0 1 2 2v12a2 2 0 0 1-2 2H3a2 2 0 0 1-2-2V5a2 2 0 0 1 2-2h6c1.12 0 1.833.475 2.549 1.379.048.06.261.337.313.402.158.195.19.219.14.219z"/>

  <g fill="url(#a)">

    <rect x="14.5" y="9.1" width="1.4" height="1.4" rx=".15" ry=".15"/>

    <rect x="16.3" y="9.1" width="1.4" height="1.4" rx=".15" ry=".15"/>

    <rect x="18.1" y="9.1" width="1.4" height="1.4" rx=".15" ry=".15"/>

    <rect x="15.4" y="10.9" width="1.4" height="1.4" rx=".15" ry=".15"/>

    <rect x="17.2" y="10.9" width="1.4" height="1.4" rx=".15" ry=".15"/>

    <rect x="19" y="10.9" width="1.4" height="1.4" rx=".15" ry=".15"/>

    <rect x="16.3" y="12.7" width="1.4" height="1.4" rx=".15" ry=".15"/>

    <rect x="18.1" y="12.7" width="1.4" height="1.4" rx=".15" ry=".15"/>

    <rect x="19.9" y="12.7" width="1.4" height="1.4" rx=".15" ry=".15"/>

    <rect x="17.2" y="14.5" width="1.4" height="1.4" rx=".15" ry=".15"/>

    <rect x="19" y="14.5" width="1.4" height="1.4" rx=".15" ry=".15"/>

    <rect x="20.8" y="14.5" width="1.4" height="1.4" rx=".15" ry=".15"/>

    <rect x="18.1" y="16.3" width="1.4" height="1.4" rx=".15" ry=".15"/>

  </g>

</svg>
